HIERARCHY
ROOT RootJoint
{
    OFFSET   0.000000   0.000000   0.000000
    CHANNELS 6 Xposition Yposition Zposition Xrotation Yrotation Zrotation
    JOINT pelvis_lowerback
    {
        OFFSET   0.000000   0.093605   0.000000
        CHANNELS 3 Xrotation Yrotation Zrotation
        JOINT lowerback_torso
        {
            OFFSET   0.000000   0.100000   0.000000
            CHANNELS 3 Xrotation Yrotation Zrotation
            JOINT torso_head
            {
                OFFSET   0.000000   0.282350   0.000000
                CHANNELS 3 Xrotation Yrotation Zrotation
                End Site
                {
                    OFFSET   0.000000   0.192650   0.000000
                }
            }
            JOINT rTorso_Clavicle
            {
                OFFSET  -0.001000   0.157500   0.000000
                CHANNELS 3 Xrotation Yrotation Zrotation
                JOINT rShoulder
                {
                    OFFSET  -0.117647   0.000000   0.000000
                    CHANNELS 3 Xrotation Yrotation Zrotation
                    JOINT rElbow
                    {
                        OFFSET  -0.245000   0.000000   0.000000
                        CHANNELS 3 Xrotation Yrotation Zrotation
                        JOINT rWrist
                        {
                            OFFSET  -0.240000   0.000000   0.000000
                            CHANNELS 3 Xrotation Yrotation Zrotation
                            End Site
                            {
                                OFFSET  -0.116353  -0.002500   0.000000
                            }
                        }
                    }
                }
            }
            JOINT lTorso_Clavicle
            {
                OFFSET   0.001000   0.157500   0.000000
                CHANNELS 3 Xrotation Yrotation Zrotation
                JOINT lShoulder
                {
                    OFFSET   0.117647   0.000000   0.000000
                    CHANNELS 3 Xrotation Yrotation Zrotation
                    JOINT lElbow
                    {
                        OFFSET   0.245000   0.000000   0.000000
                        CHANNELS 3 Xrotation Yrotation Zrotation
                        JOINT lWrist
                        {
                            OFFSET   0.240000   0.000000   0.000000
                            CHANNELS 3 Xrotation Yrotation Zrotation
                            End Site
                            {
                                OFFSET   0.116353  -0.002500   0.000000
                            }
                        }
                    }
                }
            }
        }
    }
    JOINT rHip
    {
        OFFSET  -0.100000  -0.051395   0.000000
        CHANNELS 3 Xrotation Yrotation Zrotation
        JOINT rKnee
        {
            OFFSET   0.000000  -0.410000   0.000000
            CHANNELS 3 Xrotation Yrotation Zrotation
            JOINT rAnkle
            {
                OFFSET   0.000000  -0.390000   0.000000
                CHANNELS 3 Xrotation Yrotation Zrotation
                JOINT rToeJoint
                {
                    OFFSET   0.000000  -0.050000   0.130000
                    CHANNELS 3 Xrotation Yrotation Zrotation
                    End Site
                    {
                        OFFSET  -0.010000   0.002000   0.060000
                    }
                }
            }
        }
    }
    JOINT lHip
    {
        OFFSET   0.100000  -0.051395   0.000000
        CHANNELS 3 Xrotation Yrotation Zrotation
        JOINT lKnee
        {
            OFFSET   0.000000  -0.410000   0.000000
            CHANNELS 3 Xrotation Yrotation Zrotation
            JOINT lAnkle
            {
                OFFSET   0.000000  -0.390000   0.000000
                CHANNELS 3 Xrotation Yrotation Zrotation
                JOINT lToeJoint
                {
                    OFFSET   0.000000  -0.050000   0.130000
                    CHANNELS 3 Xrotation Yrotation Zrotation
                    End Site
                    {
                        OFFSET   0.010000   0.002000   0.060000
                    }
                }
            }
        }
    }
}
MOTION
Frames: 5
Frame Time:   0.008333
 -2.462408   0.861182   4.350337  10.694719 -13.549497  -0.098142  12.207534   6.383545  -0.003601   4.147996   2.498236   4.291897 -13.648565  -1.624849   1.165759   1.303804   5.380094   8.972543  -2.808481   9.991030  43.320118 179.921717  84.007849 -179.924979   2.665984   3.674502 -12.198420   8.915106   2.602088  -8.077003  23.216636   0.403769 -43.396022   0.169945 -89.098534   0.174038   2.168247  -5.313914   7.490880   4.436128   5.187674   0.435287  16.247872  -0.000933   0.000903 -22.915966   2.364709  -0.820358 -14.113441   0.013055   0.003326 -39.597798  -3.877952   4.740476  61.097031  -0.001146  -0.005039 -23.009183   6.913461   5.826323  -4.899273   0.001056   0.000934
 -2.463395   0.862802   4.361151  10.906242 -13.319163   0.323722  12.156939   6.717702  -0.234055   4.096748   2.692093   4.054976 -13.617932  -1.860987   1.119627   1.129096   5.412963   8.780967  -3.277867  10.022618  43.572205 179.922379  83.336476 -179.925727   2.494651   3.703117 -12.316449   9.173926   2.960745  -7.888052  23.477443   0.652761 -43.494151   0.143645 -89.042939   0.147236   2.033237  -5.156010   7.427437   5.124033   5.072027  -0.116064  15.799168  -0.001361   0.000310 -20.987804   2.381449  -0.232854 -17.442993   0.027940   0.002599 -40.316789  -3.733052   4.363625  59.019292  -0.001828  -0.006557 -23.057554   6.808324   5.740778  -4.852433   0.001002   0.000880
 -2.464394   0.864945   4.372319  11.163320 -13.053457   0.754952  12.073029   7.035010  -0.490316   4.051372   2.870135   3.805604 -13.569227  -2.083390   1.073254   0.991722   5.412767   8.579084  -3.698020  10.044317  43.819453 179.922462  82.684728 -179.925990   2.338768   3.791886 -12.408516   9.426572   3.325562  -7.675936  23.729953   0.893993 -43.590982   0.119260 -89.014454   0.122297   1.910330  -5.090106   7.380206   5.722904   4.924765  -0.650067  15.399131  -0.001625  -0.000178 -18.675160   2.424674   0.232693 -21.412405   0.040095   0.002683 -40.941494  -3.558194   3.936808  56.821273  -0.003271  -0.007712 -23.106811   6.705708   5.658468  -4.774781   0.001083   0.000930
 -2.465315   0.867316   4.383793  11.438623 -12.816490   1.197549  11.984108   7.351242  -0.768473   4.009444   3.047810   3.537873 -13.517999  -2.289748   1.023535   0.867148   5.402230   8.366407  -4.087295  10.060622  44.044230 179.923983  82.067468 -179.927793   2.196649   3.911889 -12.488885   9.673755   3.688950  -7.454600  23.976007   1.132632 -43.678630   0.098611 -88.993909   0.101155   1.796102  -5.065747   7.352885   6.262668   4.740962  -1.173391  15.049311  -0.001677  -0.000365 -16.287182   2.486544   0.445161 -25.181793   0.040928   0.003290 -41.510039  -3.363826   3.482476  54.733621  -0.004378  -0.007692 -23.154683   6.608834   5.581099  -4.704141   0.001120   0.000913
 -2.466102   0.869558   4.395483  11.725442 -12.615508   1.677826  11.893572   7.659254  -1.081910   3.968886   3.222359   3.248012 -13.464791  -2.481763   0.970822   0.745730   5.387717   8.139295  -4.455040  10.075518  44.245968 179.926975  81.482074 -179.931152   2.067348   4.057153 -12.571002   9.914617   4.047150  -7.218036  24.215175   1.369094 -43.753361   0.081225 -88.979336   0.083336   1.688427  -5.064403   7.342882   6.764976   4.562120  -1.732907  14.741944  -0.001666  -0.000438 -13.797685   2.560062   0.517370 -29.603714   0.038078   0.002972 -42.049782  -3.156765   2.991590  52.805708  -0.004811  -0.006641 -23.200407   6.517668   5.508699  -4.647960   0.001088   0.000826
